# xmcd
#
# Track frame offsets: 
#        150
#        12875
#        24123
#        38426
#        47252
#        55195
#        66741
#        77483
#        86479
#        98280
#        108682
#        119354
#
# Disc length: 1784 seconds
#
# Revision: 3
# Processed by: cddbd v1.5.2PL0 Copyright (c) Steve Scherf et al.
# Submitted via: ExactAudioCopyFreeDBPlugin 1.0
#
DISCID=8206f60c
DTITLE=Johnny Horton - Johnny Horton Makes History
DYEAR=1960
DGENRE=Oldies
TTITLE0=Johnny Freedom (Freedomland)
TTITLE1=Jim Bridger
TTITLE2=Comanche (The Brave Horse)
TTITLE3=Snow Shoe Thompson
TTITLE4=O'Leary's Cow
TTITLE5=The Battle Of New Orleans
TTITLE6=John Paul Jones
TTITLE7=Young Abe Lincoln (Make A Tall, Tall Man)
TTITLE8=The Battle Of Bull Run
TTITLE9=The Sinking Of The Reuben James
TTITLE10=Johnny Reb
TTITLE11=Sink The Bismark
EXTD=
EXTT0=
EXTT1=
EXTT2=
EXTT3=
EXTT4=
EXTT5=
EXTT6=
EXTT7=
EXTT8=
EXTT9=
EXTT10=
EXTT11=
PLAYORDER=
